<?xml version="1.0" encoding="UTF-8" standalone="no"?>
<svg
   xmlns:dc="http://purl.org/dc/elements/1.1/"
   xmlns:cc="http://creativecommons.org/ns#"
   xmlns:rdf="http://www.w3.org/1999/02/22-rdf-syntax-ns#"
   xmlns:svg="http://www.w3.org/2000/svg"
   xmlns="http://www.w3.org/2000/svg"
   xmlns:sodipodi="http://sodipodi.sourceforge.net/DTD/sodipodi-0.dtd"
   xmlns:inkscape="http://www.inkscape.org/namespaces/inkscape"
   id="ISO"
   viewBox="0 0 2279.19 2279.19"
   version="1.1"
   sodipodi:docname="mirrorz.svg"
   inkscape:version="1.0.2 (e86c870879, 2021-01-15)">
  <metadata
     id="metadata26">
    <rdf:RDF>
      <cc:Work
         rdf:about="">
        <dc:format>image/svg+xml</dc:format>
        <dc:type
           rdf:resource="http://purl.org/dc/dcmitype/StillImage" />
      </cc:Work>
    </rdf:RDF>
  </metadata>
  <sodipodi:namedview
     pagecolor="#ffffff"
     bordercolor="#666666"
     borderopacity="1"
     objecttolerance="10"
     gridtolerance="10"
     guidetolerance="10"
     inkscape:pageopacity="0"
     inkscape:pageshadow="2"
     inkscape:window-width="1920"
     inkscape:window-height="1022"
     id="namedview24"
     showgrid="false"
     inkscape:snap-object-midpoints="true"
     showguides="true"
     inkscape:guide-bbox="true"
     inkscape:zoom="0.2702232"
     inkscape:cx="1361.848"
     inkscape:cy="1280.6959"
     inkscape:window-x="0"
     inkscape:window-y="28"
     inkscape:window-maximized="1"
     inkscape:current-layer="ISO"
     inkscape:document-rotation="0">
    <sodipodi:guide
       position="1139.6,1139.59"
       orientation="0,-1"
       id="guide32" />
    <sodipodi:guide
       position="1139.6,1139.59"
       orientation="1,0"
       id="guide34" />
  </sodipodi:namedview>
  <defs
     id="defs4">
    <style
       id="style2">.cls-1{fill:#19b5fe;}.cls-2{fill:#fff;}.cls-3{fill:#bee2e9;}.cls-4{fill:#815cb7;}</style>
  </defs>
  <title
     id="title6">mirrors</title>
  <g
     id="g856"
     transform="matrix(1.8484593,-1.7267067,-0.30318352,1.4128719,-625.1264,1495.1928)">
    <circle
       class="cls-1"
       cx="1139.595"
       cy="1139.6"
       id="circle8"
       style="stroke-width:0.380609"
       r="433.74167" />
    <circle
       class="cls-2"
       cx="1396.0836"
       cy="805.32458"
       r="180.05075"
       id="circle14"
       transform="rotate(15.024381)"
       style="stroke-width:0.380609" />
    <circle
       class="cls-3"
       cx="1396.0836"
       cy="805.32458"
       r="168.38892"
       id="circle16"
       transform="rotate(15.024381)"
       style="stroke-width:0.380609" />
    <circle
       class="cls-2"
       cx="1396.0836"
       cy="805.32458"
       r="65.20208"
       id="circle18"
       transform="rotate(15.024381)"
       style="stroke-width:0.380609" />
  </g>
  <path
     id="path9198"
     class="cls-4"
     d="m 2271.2213,255.20716 c 0,0 -229.4159,138.57 -410.3574,188.97166 -180.9415,50.40164 -454.9954,89.01217 -727.9701,10.16599 C 859.9191,375.49866 598.21554,352.44514 391.56441,387.3917 184.91328,422.33824 0.50000219,486.71015 0.50000219,486.71015 c 0,0 288.97996781,-211.96641 541.66412781,-331.0681 C 794.84827,36.540357 1135.9645,-6.3806843 1411.7928,15.225178 1672.8379,35.584591 2045.5696,185.05036 2271.2213,255.20716 Z"
     style="stroke-width:2.18926" />
  <path
     id="path850"
     class="cls-4"
     d="m 0.5001572,2016.5753 c 0,0 229.4159028,-138.57 410.3572528,-188.9716 180.94166,-50.4016 454.99569,-89.0124 727.97019,-10.166 272.9745,78.846 534.678,101.8997 741.3291,66.9531 206.6511,-34.9467 391.0645,-99.3182 391.0645,-99.3182 0,0 -288.98,211.9659 -541.6643,331.068 -252.684,119.1013 -593.8002,162.0227 -869.62835,140.4168 C 598.88334,2236.198 226.15194,2086.7325 0.5001572,2016.5753 Z"
     style="stroke-width:2.18926" />
</svg>
