<?xml version="1.0" encoding="UTF-8" standalone="no"?>
<svg
   xmlns:dc="http://purl.org/dc/elements/1.1/"
   xmlns:cc="http://creativecommons.org/ns#"
   xmlns:rdf="http://www.w3.org/1999/02/22-rdf-syntax-ns#"
   xmlns:svg="http://www.w3.org/2000/svg"
   xmlns="http://www.w3.org/2000/svg"
   height="83.88118mm"
   width="217.18494mm"
   version="1.1"
   viewBox="0 0 820.85646 317.03124"
   id="ISO">
  <metadata
     id="metadata26">
    <rdf:RDF>
      <cc:Work
         rdf:about="">
        <dc:format>image/svg+xml</dc:format>
        <dc:type
           rdf:resource="http://purl.org/dc/dcmitype/StillImage" />
        <dc:title>mirrorz-404</dc:title>
        <cc:license
           rdf:resource="http://creativecommons.org/licenses/by-nc-sa/4.0/" />
      </cc:Work>
    </rdf:RDF>
  </metadata>
  <defs
     id="defs4">
    <style
       id="style2">.cls-1{fill:#19b5fe;}.cls-2{fill:#fff;}.cls-3{fill:#bee2e9;}.cls-4{fill:#815cb7;}</style>
  </defs>
  <title
     id="title6">mirrorz-404</title>
  <g
     transform="translate(-151.91235,-238.55469)"
     style="display:inline"
     id="layer1">
    <path
       style="fill:#19b5fe;stroke-width:0.13909745"
       d="M 556.26172,238.55469 A 158.51544,158.51544 0 0 0 397.74609,397.07031 158.51544,158.51544 0 0 0 556.26172,555.58594 158.51544,158.51544 0 0 0 714.77734,397.07031 158.51544,158.51544 0 0 0 556.26172,238.55469 Z m 105.96289,61.19336 c 0.93921,0.0282 1.89299,0.18821 2.83398,0.49414 5.01724,1.63162 7.8258,6.79193 6.28321,11.53515 -1.5426,4.74322 -6.848,7.26638 -11.86524,5.63477 -5.01725,-1.63162 -7.90838,-6.81454 -6.36718,-11.56055 1.25221,-3.85612 5.04532,-6.22569 9.11523,-6.10351 z m -106.5332,31.56054 a 65.801436,65.801436 0 0 1 17.62109,2.24805 65.801436,65.801436 0 0 1 46.49414,80.60938 65.801436,65.801436 0 0 1 -80.60937,46.49414 65.801436,65.801436 0 0 1 -46.49415,-80.60938 65.801436,65.801436 0 0 1 62.98829,-48.74219 z"
       id="circle8" />
    <path
       style="fill:#bee2e9;stroke-width:0.13909745"
       d="m 493.99805,376.04102 c -11.89439,0.28215 -20.7404,1.0895 -33.75,6.38476 -11.67478,4.57874 -24.82032,14.25977 -24.82032,14.25977 0,0 17.5707,-3.75972 31.15235,-3.14453 13.58166,0.6152 19.58736,1.8903 23.50976,3.29882 0.13434,-0.34732 0.2901,-0.69621 0.44532,-1.04492 a 65.801436,65.801436 0 0 1 2.16796,-15.74414 65.801436,65.801436 0 0 1 1.29493,-4.00976 z"
       id="path9214" />
    <path
       style="fill:#bee2e9;stroke-width:0.13909745"
       d="m 525.51953,455.2207 c -0.73707,2.0024 -1.46402,4.14879 -2.11523,6.50586 -4.14426,14.99493 -2.22071,21.99219 -2.22071,21.99219 0,0 6.25882,-13.31488 14.97657,-24.03906 a 65.801436,65.801436 0 0 1 -10.64063,-4.45899 z"
       id="path9226" />
    <path
       style="fill:#bee2e9;stroke-width:0.13909745"
       d="m 555.72852,335.57031 a 61.539496,61.539496 0 0 0 -58.90821,45.58594 61.539496,61.539496 0 0 0 43.48242,75.38867 61.539496,61.539496 0 0 0 75.38868,-43.48437 61.539496,61.539496 0 0 0 -43.48243,-75.38867 61.539496,61.539496 0 0 0 -16.48046,-2.10157 z m 0.32226,37.71094 a 23.828783,23.828783 0 0 1 6.38281,0.8125 23.828783,23.828783 0 0 1 16.83594,29.19141 23.828783,23.828783 0 0 1 -29.19141,16.83789 23.828783,23.828783 0 0 1 -16.83593,-29.19141 23.828783,23.828783 0 0 1 22.80859,-17.65039 z"
       id="circle16" />
    <path
       style="fill:#815cb7;stroke-width:0.13909745"
       d="m 606.90471,445.3197 c 5.35032,7.81387 9.2801,11.33693 15.14754,15.75596 12.56973,9.92919 18.8516,10.20522 18.8516,10.20522 0,0 -12.28726,3.9362 -24.69529,-1.26455 -11.67198,-4.8539 -21.68843,-14.27538 -21.68843,-14.27538 0,0 3.08664,-1.42833 6.86623,-4.49398 4.37989,-3.55837 5.51835,-5.92727 5.51835,-5.92727 z"
       class="cls-4"
       id="path9240" />
    <path
       style="fill:#815cb7;stroke-width:0.13909745"
       d="m 501.41016,340.89258 c -2.3031,0.006 -4.50925,0.0991 -6.58204,0.29883 -17.52242,1.68277 -38.35734,8.11047 -52.74414,18.31836 -14.38681,10.20789 -29.93164,26.60742 -29.93164,26.60742 0,0 10.76845,-6.04293 23.28321,-10.49414 12.51476,-4.45122 29.17099,-5.88689 47.20117,-3.9668 4.41552,0.47023 8.74883,0.49354 12.93555,0.19531 a 65.801436,65.801436 0 0 1 24.55664,-29.66211 c -6.46554,-0.7727 -12.90123,-1.31259 -18.71875,-1.29687 z"
       id="path9198" />
    <path
       id="path1152"
       d="M 556.26172,238.55469 A 158.51544,158.51544 0 0 0 397.74609,397.07031 158.51544,158.51544 0 0 0 556.26172,555.58594 158.51544,158.51544 0 0 0 714.77734,397.07031 158.51544,158.51544 0 0 0 556.26172,238.55469 Z m 105.96289,61.19336 c 0.93921,0.0282 1.89299,0.18821 2.83398,0.49414 5.01724,1.63162 7.8258,6.79193 6.28321,11.53515 -1.5426,4.74322 -6.848,7.26638 -11.86524,5.63477 -5.01725,-1.63162 -7.90838,-6.81454 -6.36718,-11.56055 1.25221,-3.85612 5.04532,-6.22569 9.11523,-6.10351 z m -106.5332,31.56054 a 65.801436,65.801436 0 0 1 17.62109,2.24805 65.801436,65.801436 0 0 1 46.49414,80.60938 65.801436,65.801436 0 0 1 -80.60937,46.49414 65.801436,65.801436 0 0 1 -46.49415,-80.60938 65.801436,65.801436 0 0 1 62.98829,-48.74219 z"
       style="fill:#19b5fe;stroke-width:0.13909745" />
    <path
       id="path1154"
       d="m 493.99805,376.04102 c -11.89439,0.28215 -20.7404,1.0895 -33.75,6.38476 -11.67478,4.57874 -24.82032,14.25977 -24.82032,14.25977 0,0 17.5707,-3.75972 31.15235,-3.14453 13.58166,0.6152 19.58736,1.8903 23.50976,3.29882 0.13434,-0.34732 0.2901,-0.69621 0.44532,-1.04492 a 65.801436,65.801436 0 0 1 2.16796,-15.74414 65.801436,65.801436 0 0 1 1.29493,-4.00976 z"
       style="fill:#bee2e9;stroke-width:0.13909745" />
    <path
       id="path1156"
       d="m 525.51953,455.2207 c -0.73707,2.0024 -1.46402,4.14879 -2.11523,6.50586 -4.14426,14.99493 -2.22071,21.99219 -2.22071,21.99219 0,0 6.25882,-13.31488 14.97657,-24.03906 a 65.801436,65.801436 0 0 1 -10.64063,-4.45899 z"
       style="fill:#bee2e9;stroke-width:0.13909745" />
    <path
       id="path1158"
       d="m 555.72852,335.57031 a 61.539496,61.539496 0 0 0 -58.90821,45.58594 61.539496,61.539496 0 0 0 43.48242,75.38867 61.539496,61.539496 0 0 0 75.38868,-43.48437 61.539496,61.539496 0 0 0 -43.48243,-75.38867 61.539496,61.539496 0 0 0 -16.48046,-2.10157 z m 0.32226,37.71094 a 23.828783,23.828783 0 0 1 6.38281,0.8125 23.828783,23.828783 0 0 1 16.83594,29.19141 23.828783,23.828783 0 0 1 -29.19141,16.83789 23.828783,23.828783 0 0 1 -16.83593,-29.19141 23.828783,23.828783 0 0 1 22.80859,-17.65039 z"
       style="fill:#bee2e9;stroke-width:0.13909745" />
    <path
       id="path1160"
       class="cls-4"
       d="m 606.90471,445.3197 c 5.35032,7.81387 9.2801,11.33693 15.14754,15.75596 12.56973,9.92919 18.8516,10.20522 18.8516,10.20522 0,0 -12.28726,3.9362 -24.69529,-1.26455 -11.67198,-4.8539 -21.68843,-14.27538 -21.68843,-14.27538 0,0 3.08664,-1.42833 6.86623,-4.49398 4.37989,-3.55837 5.51835,-5.92727 5.51835,-5.92727 z"
       style="fill:#815cb7;stroke-width:0.13909745" />
    <path
       id="path1162"
       d="m 501.41016,340.89258 c -2.3031,0.006 -4.50925,0.0991 -6.58204,0.29883 -17.52242,1.68277 -38.35734,8.11047 -52.74414,18.31836 -14.38681,10.20789 -29.93164,26.60742 -29.93164,26.60742 0,0 10.76845,-6.04293 23.28321,-10.49414 12.51476,-4.45122 29.17099,-5.88689 47.20117,-3.9668 4.41552,0.47023 8.74883,0.49354 12.93555,0.19531 a 65.801436,65.801436 0 0 1 24.55664,-29.66211 c -6.46554,-0.7727 -12.90123,-1.31259 -18.71875,-1.29687 z"
       style="fill:#815cb7;stroke-width:0.13909745" />
    <path
       id="path1166"
       d="m 216.91999,251.94702 -65.00764,163.01464 v 63.00588 h 129.09191 v 64.22607 h 62.43924 v -64.49529 h 42.10488 V 413.45378 H 343.4435 v -161.5009 h -62.51123 v 163.00878 l -71.05379,-0.48219 66.50229,-162.35125 z"
       style="display:inline;fill:#19b5fe;fill-opacity:1;stroke:none;stroke-width:1.07212067px;stroke-linecap:butt;stroke-linejoin:miter;stroke-opacity:1"
       transform="translate(3.7252043e-6)" />
    <path
       id="path1168"
       d="M 804.14044,251.94702 739.1328,414.96166 v 63.00588 h 129.09191 v 64.22607 h 62.43924 v -64.49529 h 42.10488 v -64.24454 h -42.10488 v -161.5009 h -62.51123 v 163.00878 l -71.05379,-0.48219 66.50229,-162.35125 z"
       style="display:inline;fill:#19b5fe;fill-opacity:1;stroke:none;stroke-width:1.07212067px;stroke-linecap:butt;stroke-linejoin:miter;stroke-opacity:1"
       transform="translate(3.7252043e-6)" />
    <path
       id="path834"
       d="m 668.9027,306.76795 a 6.6882726,5.4645133 53.200206 0 1 -3.12144,7.45414 6.6882726,5.4645133 53.200206 0 1 -7.7879,-4.81962 6.6882726,5.4645133 53.200206 0 1 3.12145,-7.45414 6.6882726,5.4645133 53.200206 0 1 7.78789,4.81962 z"
       style="opacity:1;fill:#815cb7;fill-opacity:1;fill-rule:nonzero;stroke:none;stroke-width:1.390674;stroke-linecap:square;stroke-linejoin:round;stroke-miterlimit:4;stroke-dasharray:none;stroke-dashoffset:0;stroke-opacity:1" />
    <path
       id="path836"
       d="m 664.78261,304.0889 a 1.7440901,0.94956011 43.173797 0 1 0.62223,1.88583 1.7440901,0.94956011 43.173797 0 1 -1.92163,-0.50084 1.7440901,0.94956011 43.173797 0 1 -0.62223,-1.88582 1.7440901,0.94956011 43.173797 0 1 1.92163,0.50083 z"
       style="opacity:1;fill:#ffffff;fill-opacity:1;fill-rule:nonzero;stroke:none;stroke-width:1.53454173;stroke-linecap:square;stroke-linejoin:round;stroke-miterlimit:4;stroke-dasharray:none;stroke-dashoffset:0;stroke-opacity:1" />
  </g>
</svg>
